<svg xmlns="http://www.w3.org/2000/svg" width="257" height="328" viewBox="0 0 257 328">
  <g fill="none" stroke-linecap="round" stroke-linejoin="round">
    <path d="M127.5 25.5 C71.3 25.5 26 71.2 26 127.7 L26 255.2 C26 276.4 36.1 293.6 52.4 298.8 C66.7 303.4 79.9 295.4 94.4 287.8 C104.6 282.5 114.5 277.9 127.5 277.9 C140.5 277.9 150.4 282.5 160.6 287.8 C175.1 295.4 188.3 303.4 202.6 298.8 C218.9 293.6 229 276.4 229 255.2 L229 127.7 C229 71.2 183.7 25.5 127.5 25.5 Z" stroke="#173f3c" stroke-width="4"/>
  </g>

  <path d="M127.4 78.1 C118.5 88.3 105.6 102.8 102.6 116.9 C98.3 137.3 109.4 155.6 127.5 171.4 C145.6 155.8 156.6 137.2 152.7 116.9 C150.0 102.9 136.7 88.2 127.4 78.1 Z" fill="#cfa396" stroke="#8e6c63" stroke-width="1.2" stroke-linejoin="round"/>

  <path d="M59.0 154.2 C77.1 156.5 94.1 165.7 105.7 179.5 C118.8 195.0 123.3 216.9 122.3 254.9 C101.5 251.6 83.6 242.2 71.4 228.3 C57.0 211.9 53.7 187.4 59.0 154.2 Z" fill="#1a4b47" stroke="#123b38" stroke-width="1.2" stroke-linejoin="round"/>

  <path d="M196.4 154.2 C178.3 156.3 161.0 165.3 149.1 178.7 C135.5 194.1 130.8 216.8 132.0 254.9 C153.2 251.6 171.2 242.0 183.2 228.2 C197.6 211.6 200.5 187.1 196.4 154.2 Z" fill="#1a4b47" stroke="#123b38" stroke-width="1.2" stroke-linejoin="round"/>
</svg>
